# xmcd CD database file
#
# Track frame offsets:
#	150
#	20500
#	38375
#
# Disc length: 759 seconds
#
# Revision: 0
# Processed by: cddbd v1.5.1PL2 Copyright (c) Steve Scherf et al.
# Submitted via: CDex 1.50beta8
#
DISCID=1502f503
DTITLE=我那覇美奈 - 砂の祈り
DYEAR=2004
DGENRE=J-POP
TTITLE0=砂の祈り
TTITLE1=青の彼方へ
TTITLE2=月の雫 with strings
EXTD=YEAR: 2004
EXTT0=
EXTT1=
EXTT2=
PLAYORDER=
